<svg id="图层_1" data-name="图层 1" xmlns="http://www.w3.org/2000/svg" viewBox="0 0 90.89 18.77"><defs><style>.cls-1{fill:#777;}.cls-2{fill:#ffa826;}.cls-3{fill:#dd8919;}.cls-4{fill:#fff;}</style></defs><title>未标题-1</title><path class="cls-1" d="M36.52,33.89a2.56,2.56,0,0,1-.37-1.43,12.2,12.2,0,0,1,.13-1.89,11.77,11.77,0,0,1,.44-1.83,1.12,1.12,0,0,1,.37-.59,1.26,1.26,0,0,1,.75-.18.62.62,0,0,1,.41.1.37.37,0,0,1,.11.29,5.81,5.81,0,0,1-.15.74c-.09.34-.16.65-.21.92A12.91,12.91,0,0,0,37.74,32a1,1,0,0,0,.06.41.24.24,0,0,0,.21.12c.14,0,.3-.14.5-.42a6.12,6.12,0,0,0,.64-1.25,17.83,17.83,0,0,0,.65-2.07,1.08,1.08,0,0,1,.33-.59,1,1,0,0,1,.65-.18.81.81,0,0,1,.42.08.3.3,0,0,1,.12.28A13.91,13.91,0,0,1,41,30.22a17.06,17.06,0,0,0-.37,2.17.69.69,0,0,0,.11.41A.32.32,0,0,0,41,33a1.09,1.09,0,0,0,.63-.34,12.1,12.1,0,0,0,1-1.1.44.44,0,0,1,.36-.19.32.32,0,0,1,.27.17.94.94,0,0,1,.1.45,1.32,1.32,0,0,1-.25.85A5.79,5.79,0,0,1,41.86,34a2.45,2.45,0,0,1-1.49.47,1,1,0,0,1-.93-.51,2.84,2.84,0,0,1-.3-1.43A3.33,3.33,0,0,1,38.46,34a1.31,1.31,0,0,1-1,.5A1.15,1.15,0,0,1,36.52,33.89Z" transform="translate(-17 -18.23)"/><path class="cls-1" d="M42.5,33.91a5.34,5.34,0,0,1-.21-1.76,11.57,11.57,0,0,1,.49-3.41,1,1,0,0,1,.39-.58,1.3,1.3,0,0,1,.76-.19.67.67,0,0,1,.37.07.29.29,0,0,1,.11.26,5.59,5.59,0,0,1-.2,1c-.09.37-.16.69-.21,1a9.3,9.3,0,0,0-.13,1,7.53,7.53,0,0,1,1-1.93,3.78,3.78,0,0,1,1.06-1.06,1.91,1.91,0,0,1,1-.32c.58,0,.86.3.86.9a6.84,6.84,0,0,1-.12.86,5,5,0,0,0-.1.69c0,.33.11.49.33.49s.56-.21.95-.61a.52.52,0,0,1,.36-.18.31.31,0,0,1,.27.16.75.75,0,0,1,.1.42,1.17,1.17,0,0,1-.26.8,3.64,3.64,0,0,1-.87.68,2.07,2.07,0,0,1-1,.28,1.42,1.42,0,0,1-1.07-.37,1.38,1.38,0,0,1-.36-1,2,2,0,0,1,0-.42c0-.18,0-.31,0-.37s0-.22-.14-.22-.31.15-.53.46a7.12,7.12,0,0,0-.64,1.22,11.52,11.52,0,0,0-.52,1.6,2.2,2.2,0,0,1-.33.87.73.73,0,0,1-.61.23A.71.71,0,0,1,42.5,33.91Z" transform="translate(-17 -18.23)"/><path class="cls-1" d="M48.52,33.91a5.4,5.4,0,0,1-.2-1.76,11.57,11.57,0,0,1,.49-3.41,1,1,0,0,1,.39-.58A1.28,1.28,0,0,1,50,28a.69.69,0,0,1,.37.07.29.29,0,0,1,.1.26,5.23,5.23,0,0,1-.19,1c-.09.37-.16.69-.22,1s-.09.61-.13,1a7.86,7.86,0,0,1,1-1.93,3.8,3.8,0,0,1,1.07-1.06,1.91,1.91,0,0,1,1-.32c.57,0,.86.3.86.9a12.06,12.06,0,0,1-.29,1.94,10.14,10.14,0,0,0-.26,1.58c0,.37.13.56.39.56a1.09,1.09,0,0,0,.63-.34,12.1,12.1,0,0,0,1-1.1.47.47,0,0,1,.36-.19.32.32,0,0,1,.27.17.83.83,0,0,1,.1.45,1.32,1.32,0,0,1-.25.85A5.79,5.79,0,0,1,54.45,34a2.43,2.43,0,0,1-1.49.47,1.26,1.26,0,0,1-1-.4,1.8,1.8,0,0,1-.34-1.18,9.14,9.14,0,0,1,.18-1.38A7.13,7.13,0,0,0,52,30.3c0-.15-.05-.22-.15-.22s-.28.15-.48.46a7.91,7.91,0,0,0-.64,1.22,10.32,10.32,0,0,0-.52,1.6,2.18,2.18,0,0,1-.34.87.79.79,0,0,1-1.31-.32Z" transform="translate(-17 -18.23)"/><path class="cls-1" d="M55.23,33.83a3.17,3.17,0,0,1-.39-1.68,9.85,9.85,0,0,1,.16-1.6,15.14,15.14,0,0,1,.39-1.81,1.19,1.19,0,0,1,.31-.6,1,1,0,0,1,.64-.17c.45,0,.67.16.67.47a10.86,10.86,0,0,1-.25,1.6,12.22,12.22,0,0,0-.31,2.05,1.56,1.56,0,0,0,.1.64.38.38,0,0,0,.36.22,1,1,0,0,0,.59-.35,11.75,11.75,0,0,0,1-1.09.44.44,0,0,1,.36-.19.32.32,0,0,1,.27.17.94.94,0,0,1,.1.45,1.27,1.27,0,0,1-.26.85c-.87,1.12-1.69,1.67-2.45,1.67A1.36,1.36,0,0,1,55.23,33.83Zm.53-7a1,1,0,0,1-.28-.75,1.06,1.06,0,0,1,.36-.81,1.37,1.37,0,0,1,.91-.32,1.17,1.17,0,0,1,.79.25.83.83,0,0,1,.31.7,1.16,1.16,0,0,1-.35.88,1.29,1.29,0,0,1-.91.32A1.14,1.14,0,0,1,55.76,26.79Z" transform="translate(-17 -18.23)"/><path class="cls-1" d="M64.29,31.49a.83.83,0,0,1,.1.45,1.27,1.27,0,0,1-.25.85A5.64,5.64,0,0,1,62.89,34a2.59,2.59,0,0,1-1.55.47q-2.7,0-2.7-3.95c0-.41,0-.82,0-1.23h-.51a.73.73,0,0,1-.54-.15.71.71,0,0,1-.14-.48q0-.78.6-.78h.75a13.86,13.86,0,0,1,.69-2.77,6.39,6.39,0,0,1,1.12-2,1.91,1.91,0,0,1,1.41-.74,1,1,0,0,1,.87.51,2.32,2.32,0,0,1,.32,1.28,4.88,4.88,0,0,1-1.72,3.72H63a.44.44,0,0,1,.31.1.52.52,0,0,1,.09.36c0,.63-.5,1-1.5,1H60.3c0,.46,0,.82,0,1.07a4.41,4.41,0,0,0,.33,2,1.09,1.09,0,0,0,1,.58,1.54,1.54,0,0,0,1-.36,8.51,8.51,0,0,0,1-1.08.47.47,0,0,1,.36-.19A.32.32,0,0,1,64.29,31.49Zm-3-7.29a7.45,7.45,0,0,0-.47,1.43c-.14.62-.26,1.29-.36,2a4.74,4.74,0,0,0,1.17-1.58A4,4,0,0,0,62,24.5c0-.55-.09-.82-.29-.82S61.42,23.86,61.26,24.2Z" transform="translate(-17 -18.23)"/><path class="cls-1" d="M63.69,33.89a2.56,2.56,0,0,1-.37-1.43,12.2,12.2,0,0,1,.13-1.89,11.77,11.77,0,0,1,.44-1.83,1.12,1.12,0,0,1,.37-.59A1.26,1.26,0,0,1,65,28a.62.62,0,0,1,.41.1.37.37,0,0,1,.11.29,5.81,5.81,0,0,1-.15.74c-.09.34-.16.65-.21.92A12.91,12.91,0,0,0,64.91,32a1,1,0,0,0,.06.41.24.24,0,0,0,.21.12c.14,0,.3-.14.5-.42a6.12,6.12,0,0,0,.64-1.25A17.83,17.83,0,0,0,67,28.74a1.08,1.08,0,0,1,.33-.59A1,1,0,0,1,68,28a.88.88,0,0,1,.43.08.32.32,0,0,1,.11.28,13.91,13.91,0,0,1-.33,1.89,17.06,17.06,0,0,0-.37,2.17.69.69,0,0,0,.11.41.32.32,0,0,0,.28.15,1.09,1.09,0,0,0,.63-.34,12.1,12.1,0,0,0,1-1.1.44.44,0,0,1,.36-.19.32.32,0,0,1,.27.17.94.94,0,0,1,.1.45,1.32,1.32,0,0,1-.25.85A5.79,5.79,0,0,1,69,34a2.45,2.45,0,0,1-1.49.47,1,1,0,0,1-.93-.51,2.84,2.84,0,0,1-.3-1.43A3.33,3.33,0,0,1,65.63,34a1.31,1.31,0,0,1-1,.5A1.15,1.15,0,0,1,63.69,33.89Z" transform="translate(-17 -18.23)"/><path class="cls-1" d="M69.67,33.91a5.34,5.34,0,0,1-.21-1.76A11.57,11.57,0,0,1,70,28.74a1,1,0,0,1,.39-.58A1.3,1.3,0,0,1,71.1,28a.67.67,0,0,1,.37.07.29.29,0,0,1,.11.26,5.59,5.59,0,0,1-.2,1c-.09.37-.16.69-.21,1a9.3,9.3,0,0,0-.13,1,7.53,7.53,0,0,1,1-1.93,3.78,3.78,0,0,1,1.06-1.06A1.91,1.91,0,0,1,74,28c.58,0,.86.3.86.9a6.84,6.84,0,0,1-.12.86,5,5,0,0,0-.1.69c0,.33.11.49.33.49s.56-.21.95-.61a.52.52,0,0,1,.36-.18.3.3,0,0,1,.27.16.75.75,0,0,1,.1.42,1.17,1.17,0,0,1-.26.8,3.64,3.64,0,0,1-.87.68,2.07,2.07,0,0,1-1,.28,1.42,1.42,0,0,1-1.07-.37,1.38,1.38,0,0,1-.36-1,2,2,0,0,1,0-.42c0-.18,0-.31,0-.37s0-.22-.14-.22-.31.15-.53.46a7.12,7.12,0,0,0-.64,1.22,10.3,10.3,0,0,0-.51,1.6,2.18,2.18,0,0,1-.34.87.73.73,0,0,1-.61.23A.71.71,0,0,1,69.67,33.91Z" transform="translate(-17 -18.23)"/><path class="cls-1" d="M81.64,31.49a.94.94,0,0,1,.1.45,1.27,1.27,0,0,1-.26.85,4.64,4.64,0,0,1-1.38,1.15,3.71,3.71,0,0,1-1.91.52A2.89,2.89,0,0,1,76,33.68a3,3,0,0,1-.77-2.15,4.16,4.16,0,0,1,.38-1.77,3.31,3.31,0,0,1,1.07-1.31A2.61,2.61,0,0,1,78.25,28a1.62,1.62,0,0,1,1.23.48A1.74,1.74,0,0,1,80,29.73a2.28,2.28,0,0,1-.66,1.64,4.68,4.68,0,0,1-2.22,1.08,1.3,1.3,0,0,0,1.26.63,2.8,2.8,0,0,0,1.36-.43A4.5,4.5,0,0,0,81,31.51a.43.43,0,0,1,.35-.19A.32.32,0,0,1,81.64,31.49ZM77.2,29.91a3,3,0,0,0-.34,1.44v0a3.06,3.06,0,0,0,1.23-.58,1.16,1.16,0,0,0,.45-.9.64.64,0,0,0-.13-.42.48.48,0,0,0-.38-.16A1,1,0,0,0,77.2,29.91Z" transform="translate(-17 -18.23)"/><path class="cls-1" d="M80.89,33.91a5.7,5.7,0,0,1-.2-1.76,11.57,11.57,0,0,1,.49-3.41,1,1,0,0,1,.39-.58,1.28,1.28,0,0,1,.76-.19.67.67,0,0,1,.37.07.29.29,0,0,1,.11.26,5.59,5.59,0,0,1-.2,1c-.09.37-.16.69-.21,1a7.36,7.36,0,0,0-.13,1,7.87,7.87,0,0,1,1-1.93,3.93,3.93,0,0,1,1.07-1.06,1.91,1.91,0,0,1,1-.32c.57,0,.86.3.86.9a6.84,6.84,0,0,1-.12.86,5,5,0,0,0-.1.69c0,.33.11.49.33.49s.56-.21,1-.61a.5.5,0,0,1,.36-.18.31.31,0,0,1,.27.16.75.75,0,0,1,.1.42,1.12,1.12,0,0,1-.27.8,3.4,3.4,0,0,1-.86.68,2.08,2.08,0,0,1-1.06.28,1.41,1.41,0,0,1-1.06-.37,1.38,1.38,0,0,1-.37-1,3,3,0,0,1,0-.42c0-.18,0-.31,0-.37s-.05-.22-.15-.22-.3.15-.52.46a7.12,7.12,0,0,0-.64,1.22,11.52,11.52,0,0,0-.52,1.6,2.2,2.2,0,0,1-.33.87.8.8,0,0,1-1.32-.32Z" transform="translate(-17 -18.23)"/><path class="cls-1" d="M87,33.84a2.5,2.5,0,0,1-.49-1.62A4.56,4.56,0,0,1,87,30.13a4.26,4.26,0,0,1,1.3-1.59,2.86,2.86,0,0,1,1.73-.6.5.5,0,0,1,.39.12,1.08,1.08,0,0,1,.16.42,2.82,2.82,0,0,1,.59-.05c.43,0,.65.16.65.48a11.55,11.55,0,0,1-.2,1.38,13.2,13.2,0,0,0-.31,2.2.54.54,0,0,0,.1.33.3.3,0,0,0,.26.13,1,1,0,0,0,.61-.34,12.1,12.1,0,0,0,1-1.1.43.43,0,0,1,.35-.19.29.29,0,0,1,.27.17.83.83,0,0,1,.1.45,1.27,1.27,0,0,1-.25.85A6.53,6.53,0,0,1,92.58,34a1.94,1.94,0,0,1-1.18.48,1.19,1.19,0,0,1-.8-.31,1.85,1.85,0,0,1-.55-.85,2,2,0,0,1-1.73,1.16A1.55,1.55,0,0,1,87,33.84Zm2.34-1.13a2.31,2.31,0,0,0,.38-.95l.49-2.54a1.56,1.56,0,0,0-1,.44,2.8,2.8,0,0,0-.75,1.11,3.76,3.76,0,0,0-.28,1.46,1,1,0,0,0,.17.63.54.54,0,0,0,.45.21A.72.72,0,0,0,89.35,32.71Z" transform="translate(-17 -18.23)"/><path class="cls-1" d="M93.14,33.91a5.7,5.7,0,0,1-.2-1.76,11.57,11.57,0,0,1,.49-3.41,1,1,0,0,1,.39-.58,1.28,1.28,0,0,1,.76-.19A.67.67,0,0,1,95,28a.29.29,0,0,1,.11.26,5.59,5.59,0,0,1-.2,1q-.14.55-.21,1a9.13,9.13,0,0,0-.14,1,7.62,7.62,0,0,1,.86-1.81,4,4,0,0,1,1-1.11,1.69,1.69,0,0,1,1-.37.83.83,0,0,1,.66.22,1,1,0,0,1,.19.68,9,9,0,0,1-.25,1.6c-.07.33-.12.57-.15.74a6.89,6.89,0,0,1,1.47-2.47A2.31,2.31,0,0,1,100.8,28c.58,0,.86.3.86.9a11,11,0,0,1-.29,1.94,9.68,9.68,0,0,0-.25,1.58c0,.37.13.56.38.56a1,1,0,0,0,.63-.34,10.57,10.57,0,0,0,1-1.1.43.43,0,0,1,.35-.19.32.32,0,0,1,.28.17,1,1,0,0,1,.09.45,1.27,1.27,0,0,1-.25.85,5.75,5.75,0,0,1-1.22,1.2,2.45,2.45,0,0,1-1.49.47,1.26,1.26,0,0,1-1-.4,1.8,1.8,0,0,1-.34-1.18,9.14,9.14,0,0,1,.18-1.38,8,8,0,0,0,.17-1.2c0-.15,0-.22-.14-.22s-.28.15-.49.46a6.48,6.48,0,0,0-.64,1.22,11.52,11.52,0,0,0-.52,1.6,2,2,0,0,1-.33.88.78.78,0,0,1-.62.22.68.68,0,0,1-.65-.43A2.28,2.28,0,0,1,96.25,33a11.85,11.85,0,0,1,.13-1.51c.07-.59.11-1,.11-1.16s0-.22-.15-.22-.3.16-.5.5a6.8,6.8,0,0,0-.59,1.26,13.74,13.74,0,0,0-.46,1.52,2.18,2.18,0,0,1-.34.87.71.71,0,0,1-.6.23A.73.73,0,0,1,93.14,33.91Z" transform="translate(-17 -18.23)"/><path class="cls-1" d="M103.06,33.84a2.62,2.62,0,0,1-.47-1.62,4.56,4.56,0,0,1,.49-2.09,4.36,4.36,0,0,1,1.3-1.59,2.88,2.88,0,0,1,1.73-.6.48.48,0,0,1,.39.12,1.06,1.06,0,0,1,.17.42,2.39,2.39,0,0,1,.55-.05.66.66,0,0,1,.49.16.61.61,0,0,1,.18.47,7.8,7.8,0,0,1-.14,1.1c-.09.56-.17,1.1-.22,1.61s-.08,1.08-.08,1.71a1.08,1.08,0,0,1-.21.75.82.82,0,0,1-.66.23.85.85,0,0,1-.67-.23,1,1,0,0,1-.22-.73v-.22a1.46,1.46,0,0,1-1.42,1.18A1.44,1.44,0,0,1,103.06,33.84Zm2.42-1.31a6.65,6.65,0,0,0,.54-1.91l.25-1.4a1.56,1.56,0,0,0-1,.44,3.13,3.13,0,0,0-.74,1.11,4,4,0,0,0-.27,1.46,1.11,1.11,0,0,0,.15.63.46.46,0,0,0,.4.21C105.05,33.07,105.27,32.89,105.48,32.53Z" transform="translate(-17 -18.23)"/><rect class="cls-2" width="17.69" height="18.77" rx="8.84" ry="8.84"/><path class="cls-3" d="M33,22.28a.82.82,0,0,1,.16.51c0,.7-.36,1-1.08,1l-.51-.05-1.72-.12c-.57,0-1.16,0-1.78,0h-.66c-.12,1.49-.24,2.84-.36,4.07l2.5-.05a1,1,0,0,1,.73.2.76.76,0,0,1,.18.53,1.09,1.09,0,0,1-.29.8,1.14,1.14,0,0,1-.84.3H26.87l-.09.65a6.29,6.29,0,0,1-1.3,3.54,3.62,3.62,0,0,1-2.75,1,3.85,3.85,0,0,1-1.82-.44,3.14,3.14,0,0,1-1.23-1.08,1.12,1.12,0,0,1-.16-.62,1.19,1.19,0,0,1,.17-.63.48.48,0,0,1,.41-.27.62.62,0,0,1,.35.12,2.32,2.32,0,0,1,.43.47,2.08,2.08,0,0,0,1.73,1,1.73,1.73,0,0,0,1.4-.71,4.3,4.3,0,0,0,.72-2.2l.08-.83h-.7a.88.88,0,0,1-.57-.2.68.68,0,0,1-.24-.56,1,1,0,0,1,.23-.71.9.9,0,0,1,.69-.25l.8,0c.12-1.1.24-2.44.38-4a5.84,5.84,0,0,0-2.22.53,1.2,1.2,0,0,0-.64,1.11,1.86,1.86,0,0,0,.29,1,.48.48,0,0,1,.09.27.6.6,0,0,1-.29.48,1.19,1.19,0,0,1-.66.2A1,1,0,0,1,21.3,27a1.49,1.49,0,0,1-.34-.62,3.39,3.39,0,0,1-.16-1,2.82,2.82,0,0,1,1.86-2.71,13.69,13.69,0,0,1,5.44-.85,31.15,31.15,0,0,1,4.37.28A.84.84,0,0,1,33,22.28Z" transform="translate(-17 -18.23)"/><path class="cls-4" d="M31.5,22.8a.77.77,0,0,1,.14.47c0,.64-.33.94-1,.89l-.47,0c-.53-.05-1.06-.08-1.58-.11S27.53,24,27,24h-.61c-.1,1.36-.22,2.61-.33,3.74l2.31,0a.9.9,0,0,1,.66.18.69.69,0,0,1,.17.48,1,1,0,0,1-.27.75,1,1,0,0,1-.77.27H25.83l-.08.59a5.74,5.74,0,0,1-1.2,3.26,3.31,3.31,0,0,1-2.53,1,3.43,3.43,0,0,1-1.68-.41,2.92,2.92,0,0,1-1.13-1,1.09,1.09,0,0,1-.14-.57,1.11,1.11,0,0,1,.15-.58.46.46,0,0,1,.38-.25.56.56,0,0,1,.32.11,2.55,2.55,0,0,1,.39.43,1.92,1.92,0,0,0,1.6.88,1.58,1.58,0,0,0,1.28-.65,3.9,3.9,0,0,0,.67-2l.08-.76h-.65a.83.83,0,0,1-.53-.18.65.65,0,0,1-.22-.52.92.92,0,0,1,.22-.66.82.82,0,0,1,.63-.22l.74,0c.1-1,.22-2.25.34-3.7a5.4,5.4,0,0,0-2,.48,1.14,1.14,0,0,0-.59,1,1.63,1.63,0,0,0,.27.9.43.43,0,0,1,.08.25.54.54,0,0,1-.27.44,1,1,0,0,1-.6.19.91.91,0,0,1-.62-.23,1.33,1.33,0,0,1-.3-.56,2.93,2.93,0,0,1-.15-1A2.6,2.6,0,0,1,22,23.09a12.5,12.5,0,0,1,5-.77,28.08,28.08,0,0,1,4,.25A.77.77,0,0,1,31.5,22.8Z" transform="translate(-17 -18.23)"/><text x="-17" y="-18.23"></text></svg>