<?xml version="1.0" encoding="utf-8"?>
<!-- Generator: Adobe Illustrator 23.0.6, SVG Export Plug-In . SVG Version: 6.00 Build 0)  -->
<svg version="1.1" id="图层_1" xmlns="http://www.w3.org/2000/svg" xmlns:xlink="http://www.w3.org/1999/xlink" x="0px" y="0px"
	 viewBox="0 0 17.7 18.8" style="enable-background:new 0 0 17.7 18.8;" xml:space="preserve">
<style type="text/css">
	.st0{fill:#777777;}
	.st1{fill:#FFA826;}
	.st2{fill:#DD8919;}
	.st3{fill:#FFFFFF;}
</style>
<title>未标题-1</title>
<path class="st0" d="M19.5,15.7c-0.3-0.4-0.4-0.9-0.4-1.4c0-0.6,0-1.3,0.1-1.9c0.1-0.6,0.2-1.2,0.4-1.8c0.1-0.2,0.2-0.4,0.4-0.6
	c0.2-0.1,0.5-0.2,0.8-0.2c0.1,0,0.3,0,0.4,0.1c0.1,0.1,0.1,0.2,0.1,0.3c0,0.2-0.1,0.5-0.2,0.7c-0.1,0.3-0.2,0.6-0.2,0.9
	c-0.1,0.7-0.2,1.3-0.3,2c0,0.1,0,0.3,0.1,0.4c0,0.1,0.1,0.1,0.2,0.1c0.1,0,0.3-0.1,0.5-0.4c0.3-0.4,0.5-0.8,0.6-1.3
	c0.3-0.7,0.5-1.4,0.7-2.1c0-0.2,0.2-0.4,0.3-0.6c0.2-0.1,0.4-0.2,0.7-0.2c0.1,0,0.3,0,0.4,0.1c0.1,0.1,0.1,0.2,0.1,0.3
	c-0.1,0.6-0.2,1.2-0.3,1.8c-0.2,0.7-0.3,1.4-0.4,2.2c0,0.1,0,0.3,0.1,0.4c0,0.1,0.1,0.2,0.3,0.2c0.2,0,0.5-0.2,0.6-0.3
	c0.4-0.3,0.7-0.7,1-1.1c0.1-0.1,0.2-0.2,0.4-0.2c0.1,0,0.2,0.1,0.3,0.2c0.1,0.1,0.1,0.3,0.1,0.5c0,0.3-0.1,0.6-0.3,0.9
	c-0.4,0.4-0.8,0.8-1.3,1.2c-0.4,0.3-1,0.5-1.5,0.5c-0.4,0-0.7-0.2-0.9-0.5c-0.2-0.4-0.3-0.9-0.3-1.4c-0.1,0.5-0.3,1-0.7,1.5
	c-0.2,0.3-0.6,0.5-1,0.5C20.1,16.2,19.7,16,19.5,15.7z"/>
<path class="st0" d="M25.5,15.7c-0.2-0.6-0.2-1.2-0.2-1.8c0-1.2,0.2-2.3,0.5-3.4c0.1-0.2,0.2-0.4,0.4-0.6c0.2-0.1,0.5-0.2,0.8-0.2
	c0.1,0,0.3,0,0.4,0.1c0.1,0.1,0.1,0.2,0.1,0.3c0,0.3-0.1,0.7-0.2,1c-0.1,0.4-0.2,0.7-0.2,1c-0.1,0.3-0.1,0.7-0.1,1
	c0.2-0.7,0.6-1.3,1-1.9c0.3-0.4,0.6-0.8,1.1-1.1c0.3-0.2,0.6-0.3,1-0.3c0.6,0,0.9,0.3,0.9,0.9c0,0.3-0.1,0.6-0.1,0.9
	c0,0.2-0.1,0.5-0.1,0.7c0,0.3,0.1,0.5,0.3,0.5s0.6-0.2,1-0.6c0.1-0.1,0.2-0.2,0.4-0.2c0.1,0,0.2,0.1,0.3,0.2
	c0.1,0.1,0.1,0.3,0.1,0.4c0,0.3-0.1,0.6-0.3,0.8c-0.3,0.3-0.5,0.5-0.9,0.7c-0.3,0.2-0.6,0.3-1,0.3c-0.4,0-0.8-0.1-1.1-0.4
	c-0.2-0.3-0.4-0.6-0.4-1c0-0.1,0-0.3,0-0.4c0-0.2,0-0.3,0-0.4s0-0.2-0.1-0.2s-0.3,0.1-0.5,0.5c-0.3,0.4-0.5,0.8-0.6,1.2
	c-0.2,0.5-0.4,1.1-0.5,1.6c0,0.3-0.2,0.6-0.3,0.9c-0.2,0.2-0.4,0.3-0.6,0.2C25.9,16.3,25.6,16,25.5,15.7z"/>
<path class="st0" d="M31.5,15.7c-0.2-0.6-0.2-1.2-0.2-1.8c0-1.2,0.2-2.3,0.5-3.4c0.1-0.2,0.2-0.4,0.4-0.6c0.2-0.1,0.5-0.2,0.8-0.2
	c0.1,0,0.3,0,0.4,0.1c0.1,0.1,0.1,0.2,0.1,0.3c0,0.3-0.1,0.7-0.2,1c-0.1,0.4-0.2,0.7-0.2,1s-0.1,0.6-0.1,1c0.2-0.7,0.6-1.3,1-1.9
	c0.3-0.4,0.6-0.8,1.1-1.1c0.3-0.2,0.6-0.3,1-0.3c0.6,0,0.9,0.3,0.9,0.9c0,0.7-0.1,1.3-0.3,1.9c-0.1,0.5-0.2,1-0.3,1.6
	c0,0.4,0.1,0.6,0.4,0.6c0.2,0,0.5-0.2,0.6-0.3c0.4-0.3,0.7-0.7,1-1.1c0.1-0.1,0.2-0.2,0.4-0.2c0.1,0,0.2,0.1,0.3,0.2
	c0.1,0.1,0.1,0.3,0.1,0.5c0,0.3-0.1,0.6-0.3,0.9c-0.4,0.5-0.8,0.8-1.4,1.2c-0.4,0.3-1,0.5-1.5,0.5c-0.4,0-0.7-0.1-1-0.4
	c-0.2-0.3-0.4-0.8-0.3-1.2c0-0.5,0.1-0.9,0.2-1.4c0.1-0.4,0.2-0.8,0.2-1.2c0-0.1,0-0.2-0.2-0.2s-0.3,0.1-0.5,0.5
	c-0.2,0.4-0.5,0.8-0.6,1.2c-0.2,0.5-0.4,1.1-0.5,1.6c0,0.3-0.2,0.6-0.3,0.9c-0.3,0.3-0.8,0.3-1.1,0C31.7,15.9,31.6,15.8,31.5,15.7
	L31.5,15.7z"/>
<path class="st0" d="M38.2,15.6c-0.3-0.5-0.4-1.1-0.4-1.7c0-0.5,0.1-1.1,0.2-1.6c0.1-0.6,0.2-1.2,0.4-1.8c0-0.2,0.2-0.4,0.3-0.6
	c0.2-0.1,0.4-0.2,0.6-0.2c0.5,0,0.7,0.2,0.7,0.5c0,0.5-0.1,1.1-0.3,1.6c-0.2,0.7-0.3,1.4-0.3,2c0,0.2,0,0.4,0.1,0.6
	c0.1,0.1,0.2,0.2,0.4,0.2c0.2,0,0.4-0.2,0.6-0.3c0.4-0.3,0.7-0.7,1-1.1c0.1-0.1,0.2-0.2,0.4-0.2c0.1,0,0.2,0.1,0.3,0.2
	c0.1,0.1,0.1,0.3,0.1,0.5c0,0.3-0.1,0.6-0.3,0.8c-0.9,1.1-1.7,1.7-2.5,1.7C39,16.3,38.5,16,38.2,15.6z M38.8,8.6
	c-0.2-0.2-0.3-0.5-0.3-0.8c0-0.3,0.1-0.6,0.4-0.8c0.3-0.2,0.6-0.3,0.9-0.3c0.3,0,0.6,0.1,0.8,0.3c0.2,0.2,0.3,0.4,0.3,0.7
	c0,0.3-0.1,0.6-0.3,0.9c-0.3,0.2-0.6,0.3-0.9,0.3C39.3,8.9,39,8.8,38.8,8.6L38.8,8.6z"/>
<path class="st0" d="M47.3,13.3c0.1,0.1,0.1,0.3,0.1,0.5c0,0.3-0.1,0.6-0.3,0.9c-0.4,0.5-0.8,0.9-1.3,1.2c-0.5,0.3-1,0.5-1.5,0.5
	c-1.8,0-2.7-1.3-2.7-3.9c0-0.4,0-0.8,0-1.2h-0.5c-0.2,0-0.4,0-0.5-0.1c-0.1-0.1-0.2-0.3-0.1-0.5c0-0.5,0.2-0.8,0.6-0.8h0.8
	c0.1-0.9,0.4-1.9,0.7-2.8c0.2-0.7,0.6-1.4,1.1-2c0.3-0.4,0.9-0.7,1.4-0.7c0.4,0,0.7,0.2,0.9,0.5c0.2,0.4,0.3,0.8,0.3,1.3
	c0,1.4-0.6,2.8-1.7,3.7H46c0.1,0,0.2,0,0.3,0.1c0.1,0.1,0.1,0.2,0.1,0.4c0,0.6-0.5,1-1.5,1h-1.6c0,0.5,0,0.8,0,1.1
	c0,0.7,0.1,1.4,0.3,2c0.2,0.4,0.6,0.6,1,0.6c0.4,0,0.7-0.1,1-0.4c0.4-0.3,0.7-0.7,1-1.1c0.1-0.1,0.2-0.2,0.4-0.2
	C47.1,13.1,47.2,13.2,47.3,13.3z M44.3,6c-0.2,0.5-0.4,0.9-0.5,1.4c-0.1,0.6-0.3,1.3-0.4,2c0.5-0.4,0.9-1,1.2-1.6
	c0.2-0.5,0.4-1,0.4-1.6c0-0.5-0.1-0.8-0.3-0.8S44.4,5.6,44.3,6L44.3,6z"/>
<path class="st0" d="M46.7,15.7c-0.3-0.4-0.4-0.9-0.4-1.4c0-0.6,0-1.3,0.1-1.9c0.1-0.6,0.2-1.2,0.4-1.8c0.1-0.2,0.2-0.4,0.4-0.6
	c0.2-0.1,0.5-0.2,0.7-0.1c0.1,0,0.3,0,0.4,0.1c0.1,0.1,0.1,0.2,0.1,0.3c0,0.2-0.1,0.5-0.2,0.7c-0.1,0.3-0.2,0.6-0.2,0.9
	c-0.1,0.6-0.2,1.3-0.3,1.9c0,0.1,0,0.3,0.1,0.4c0,0.1,0.1,0.1,0.2,0.1c0.1,0,0.3-0.1,0.5-0.4c0.3-0.4,0.5-0.8,0.6-1.3
	c0.3-0.7,0.5-1.4,0.7-2.1c0-0.2,0.2-0.4,0.3-0.6c0.2-0.1,0.4-0.2,0.7-0.1c0.1,0,0.3,0,0.4,0.1c0.1,0.1,0.1,0.2,0.1,0.3
	c-0.1,0.6-0.2,1.3-0.3,1.9c-0.2,0.7-0.3,1.4-0.4,2.2c0,0.1,0,0.3,0.1,0.4c0.1,0.1,0.2,0.2,0.3,0.2c0.2,0,0.5-0.2,0.6-0.3
	c0.4-0.3,0.7-0.7,1-1.1c0.1-0.1,0.2-0.2,0.4-0.2c0.1,0,0.2,0.1,0.3,0.2c0.1,0.1,0.1,0.3,0.1,0.5c0,0.3-0.1,0.6-0.3,0.9
	c-0.4,0.5-0.8,0.9-1.3,1.2c-0.4,0.3-1,0.5-1.5,0.5c-0.4,0-0.7-0.2-0.9-0.5c-0.2-0.4-0.3-0.9-0.3-1.4c-0.1,0.5-0.3,1-0.7,1.5
	c-0.2,0.3-0.6,0.5-1,0.5C47.2,16.2,46.9,16,46.7,15.7z"/>
<path class="st0" d="M52.7,15.7c-0.2-0.6-0.2-1.2-0.2-1.8c0-1.2,0.2-2.3,0.5-3.4c0.1-0.2,0.2-0.4,0.4-0.6c0.2-0.1,0.5-0.2,0.7-0.2
	c0.1,0,0.3,0,0.4,0.1c0.1,0.1,0.1,0.2,0.1,0.3c0,0.3-0.1,0.7-0.2,1c-0.1,0.4-0.2,0.7-0.2,1c-0.1,0.3-0.1,0.7-0.1,1
	c0.2-0.7,0.6-1.3,1-1.9c0.3-0.4,0.6-0.8,1.1-1.1c0.3-0.2,0.6-0.3,0.9-0.3c0.6,0,0.9,0.3,0.9,0.9c0,0.3-0.1,0.6-0.1,0.9
	c0,0.2-0.1,0.5-0.1,0.7c0,0.3,0.1,0.5,0.3,0.5s0.6-0.2,0.9-0.6c0.1-0.1,0.2-0.2,0.4-0.2c0.1,0,0.2,0.1,0.3,0.2
	c0.1,0.1,0.1,0.3,0.1,0.4c0,0.3-0.1,0.6-0.3,0.8c-0.3,0.3-0.5,0.5-0.9,0.7c-0.3,0.2-0.6,0.3-1,0.3c-0.4,0-0.8-0.1-1.1-0.4
	c-0.2-0.3-0.4-0.6-0.4-1c0-0.1,0-0.3,0-0.4c0-0.2,0-0.3,0-0.4s0-0.2-0.1-0.2s-0.3,0.1-0.5,0.5c-0.3,0.4-0.5,0.8-0.6,1.2
	c-0.2,0.5-0.4,1.1-0.5,1.6c0,0.3-0.2,0.6-0.3,0.9c-0.2,0.2-0.4,0.3-0.6,0.2C53,16.2,52.7,16,52.7,15.7z"/>
<path class="st0" d="M64.6,13.3c0.1,0.1,0.1,0.3,0.1,0.5c0,0.3-0.1,0.6-0.3,0.9c-0.4,0.5-0.8,0.9-1.4,1.2c-0.6,0.3-1.2,0.5-1.9,0.5
	c-0.8,0.1-1.6-0.2-2.2-0.8c-0.5-0.6-0.8-1.4-0.8-2.1c0-0.6,0.1-1.2,0.4-1.8c0.2-0.5,0.6-1,1.1-1.3c0.5-0.3,1-0.5,1.6-0.5
	c0.5,0,0.9,0.2,1.2,0.5c0.3,0.3,0.5,0.8,0.5,1.3c0,0.6-0.2,1.2-0.7,1.6c-0.6,0.6-1.4,0.9-2.2,1.1c0.3,0.4,0.8,0.7,1.3,0.6
	c0.5,0,1-0.2,1.4-0.4c0.5-0.3,0.9-0.7,1.3-1.1c0.1-0.1,0.2-0.2,0.3-0.2C64.5,13.1,64.6,13.2,64.6,13.3z M60.2,11.7
	c-0.2,0.4-0.3,0.9-0.3,1.4l0,0c0.4-0.1,0.9-0.3,1.2-0.6c0.3-0.2,0.4-0.5,0.4-0.9c0-0.2,0-0.3-0.1-0.4c-0.1-0.1-0.2-0.2-0.4-0.2
	C60.7,11.1,60.3,11.3,60.2,11.7z"/>
<path class="st0" d="M63.9,15.7c-0.2-0.6-0.2-1.2-0.2-1.8c0-1.2,0.2-2.3,0.5-3.4c0.1-0.2,0.2-0.4,0.4-0.6c0.2-0.1,0.5-0.2,0.8-0.2
	c0.1,0,0.3,0,0.4,0.1c0.1,0.1,0.1,0.2,0.1,0.3c0,0.3-0.1,0.7-0.2,1c-0.1,0.4-0.2,0.7-0.2,1c-0.1,0.3-0.1,0.7-0.1,1
	c0.2-0.7,0.6-1.3,1-1.9c0.3-0.4,0.6-0.8,1.1-1.1c0.3-0.2,0.6-0.3,1-0.3c0.6,0,0.9,0.3,0.9,0.9c0,0.3-0.1,0.6-0.1,0.9
	c0,0.2-0.1,0.5-0.1,0.7c0,0.3,0.1,0.5,0.3,0.5s0.6-0.2,1-0.6c0.1-0.1,0.2-0.2,0.4-0.2c0.1,0,0.2,0.1,0.3,0.2
	c0.1,0.1,0.1,0.3,0.1,0.4c0,0.3-0.1,0.6-0.3,0.8c-0.2,0.3-0.5,0.5-0.9,0.7c-0.3,0.2-0.7,0.3-1.1,0.3c-0.4,0-0.8-0.1-1.1-0.4
	c-0.3-0.3-0.4-0.6-0.4-1c0-0.1,0-0.3,0-0.4c0-0.2,0-0.3,0-0.4s-0.1-0.2-0.2-0.2S67,12,66.8,12.3c-0.3,0.4-0.5,0.8-0.6,1.2
	c-0.2,0.5-0.4,1.1-0.5,1.6c0,0.3-0.2,0.6-0.3,0.9c-0.3,0.3-0.8,0.3-1.1,0C64,15.9,64,15.8,63.9,15.7L63.9,15.7z"/>
<path class="st0" d="M70,15.6c-0.3-0.5-0.5-1-0.5-1.6c0-0.7,0.2-1.4,0.5-2.1c0.3-0.6,0.7-1.2,1.3-1.6c0.5-0.4,1.1-0.6,1.7-0.6
	c0.1,0,0.3,0,0.4,0.1c0.1,0.1,0.1,0.3,0.2,0.4c0.2,0,0.4-0.1,0.6,0c0.4,0,0.7,0.2,0.7,0.5c0,0.5-0.1,0.9-0.2,1.4
	c-0.2,0.7-0.3,1.5-0.3,2.2c0,0.1,0,0.2,0.1,0.3c0.1,0.1,0.2,0.1,0.3,0.1c0.2,0,0.5-0.2,0.6-0.3c0.4-0.3,0.7-0.7,1-1.1
	c0.1-0.1,0.2-0.2,0.3-0.2c0.1,0,0.2,0.1,0.3,0.2c0.1,0.1,0.1,0.3,0.1,0.5c0,0.3-0.1,0.6-0.3,0.9c-0.3,0.5-0.7,0.9-1.2,1.2
	c-0.3,0.3-0.7,0.5-1.2,0.5c-0.3,0-0.6-0.1-0.8-0.3c-0.3-0.2-0.4-0.5-0.6-0.8c-0.3,0.7-1,1.1-1.7,1.2C70.8,16.3,70.3,16,70,15.6z
	 M72.3,14.5c0.2-0.3,0.3-0.6,0.4-1l0.5-2.5c-0.4,0-0.7,0.2-1,0.4c-0.3,0.3-0.6,0.7-0.8,1.1c-0.2,0.5-0.3,1-0.3,1.5
	c0,0.2,0,0.4,0.2,0.6c0.1,0.1,0.3,0.2,0.4,0.2C72,14.8,72.2,14.7,72.3,14.5L72.3,14.5z"/>
<path class="st0" d="M76.1,15.7c-0.2-0.6-0.2-1.2-0.2-1.8c0-1.2,0.2-2.3,0.5-3.4c0.1-0.2,0.2-0.4,0.4-0.6c0.2-0.1,0.5-0.2,0.8-0.2
	c0.1,0,0.3,0,0.4,0c0.1,0.1,0.1,0.2,0.1,0.3c0,0.3-0.1,0.7-0.2,1c-0.1,0.4-0.2,0.7-0.2,1c-0.1,0.3-0.1,0.7-0.1,1
	c0.2-0.6,0.5-1.2,0.9-1.8c0.3-0.4,0.6-0.8,1-1.1c0.3-0.2,0.6-0.4,1-0.4c0.2,0,0.5,0.1,0.7,0.2c0.1,0.2,0.2,0.4,0.2,0.7
	c0,0.5-0.1,1.1-0.3,1.6c-0.1,0.3-0.1,0.6-0.2,0.7c0.3-0.9,0.8-1.8,1.5-2.5c0.4-0.4,0.9-0.7,1.5-0.7c0.6,0,0.9,0.3,0.9,0.9
	c0,0.7-0.1,1.3-0.3,1.9c-0.1,0.5-0.2,1-0.3,1.6c0,0.4,0.1,0.6,0.4,0.6c0.2,0,0.5-0.2,0.6-0.3c0.4-0.3,0.7-0.7,1-1.1
	c0.1-0.1,0.2-0.2,0.3-0.2c0.1,0,0.2,0.1,0.3,0.2c0.1,0.1,0.1,0.3,0.1,0.5c0,0.3-0.1,0.6-0.3,0.9c-0.3,0.5-0.8,0.9-1.2,1.2
	c-0.4,0.3-1,0.5-1.5,0.5c-0.4,0-0.7-0.1-1-0.4c-0.2-0.3-0.4-0.8-0.3-1.2c0-0.5,0.1-0.9,0.2-1.4c0.1-0.4,0.1-0.8,0.2-1.2
	c0-0.1,0-0.2-0.1-0.2s-0.3,0.1-0.5,0.5c-0.3,0.4-0.5,0.8-0.6,1.2c-0.2,0.5-0.4,1.1-0.5,1.6c0,0.3-0.2,0.6-0.3,0.9
	c-0.2,0.2-0.4,0.2-0.6,0.2c-0.3,0-0.5-0.2-0.7-0.4c-0.2-0.3-0.3-0.7-0.3-1.1c0-0.5,0.1-1,0.1-1.5c0.1-0.6,0.1-1,0.1-1.2
	s0-0.2-0.2-0.2S79,12,78.8,12.4c-0.2,0.4-0.4,0.8-0.6,1.3c-0.2,0.5-0.3,1-0.5,1.5c0,0.3-0.2,0.6-0.3,0.9c-0.2,0.2-0.4,0.3-0.6,0.2
	C76.5,16.3,76.2,16,76.1,15.7z"/>
<path class="st0" d="M86.1,15.6c-0.3-0.5-0.5-1-0.5-1.6c0-0.7,0.2-1.4,0.5-2.1c0.3-0.6,0.7-1.2,1.3-1.6c0.5-0.4,1.1-0.6,1.7-0.6
	c0.1,0,0.3,0,0.4,0.1c0.1,0.1,0.1,0.3,0.2,0.4c0.2,0,0.4-0.1,0.6,0c0.2,0,0.4,0,0.5,0.2c0.1,0.1,0.2,0.3,0.2,0.5
	c0,0.4-0.1,0.7-0.1,1.1c-0.1,0.6-0.2,1.1-0.2,1.6s-0.1,1.1-0.1,1.7c0,0.3,0,0.5-0.2,0.8c-0.2,0.2-0.4,0.3-0.7,0.2
	c-0.2,0-0.5-0.1-0.7-0.2c-0.2-0.2-0.2-0.5-0.2-0.7V15c-0.1,0.7-0.7,1.2-1.4,1.2C86.8,16.2,86.3,16,86.1,15.6z M88.5,14.3
	c0.3-0.6,0.5-1.2,0.5-1.9l0.3-1.4c-0.4,0-0.7,0.2-1,0.4c-0.3,0.3-0.6,0.7-0.7,1.1c-0.2,0.5-0.3,1-0.3,1.5c0,0.2,0,0.4,0.2,0.6
	c0.1,0.1,0.2,0.2,0.4,0.2C88.1,14.8,88.3,14.7,88.5,14.3z"/>
<path class="st1" d="M8.8,0L8.8,0c4.9,0,8.9,4,8.9,8.8v1.1c0,4.9-4,8.8-8.8,8.8h0C4,18.8,0,14.8,0,9.9V8.8C0,4,4,0,8.8,0z"/>
<path class="st2" d="M16,4c0.1,0.1,0.2,0.3,0.2,0.5c0,0.7-0.4,1-1.1,1l-0.5,0l-1.7-0.1c-0.6,0-1.2,0-1.8,0h-0.7
	c-0.1,1.5-0.2,2.8-0.4,4.1l2.5,0c0.3,0,0.5,0,0.7,0.2c0.1,0.1,0.2,0.3,0.2,0.5c0,0.3-0.1,0.6-0.3,0.8c-0.2,0.2-0.5,0.3-0.8,0.3H9.9
	l-0.1,0.6c-0.1,1.3-0.5,2.5-1.3,3.5c-0.7,0.7-1.7,1.1-2.8,1c-0.6,0-1.3-0.1-1.8-0.4c-0.5-0.2-0.9-0.6-1.2-1.1
	c-0.1-0.2-0.2-0.4-0.2-0.6c0-0.2,0.1-0.4,0.2-0.6c0.1-0.2,0.2-0.3,0.4-0.3c0.1,0,0.2,0,0.4,0.1c0.2,0.1,0.3,0.3,0.4,0.5
	c0.4,0.6,1,1,1.7,1c0.6,0,1.1-0.3,1.4-0.7c0.4-0.7,0.7-1.4,0.7-2.2l0.1-0.8H7.1c-0.2,0-0.4-0.1-0.6-0.2c-0.2-0.1-0.3-0.3-0.2-0.6
	c0-0.3,0.1-0.5,0.2-0.7C6.7,9.6,7,9.5,7.2,9.5H8c0.1-1.1,0.2-2.4,0.4-4C7.6,5.5,6.9,5.7,6.2,6C5.8,6.3,5.5,6.7,5.5,7.2
	c0,0.4,0.1,0.7,0.3,1c0.1,0.1,0.1,0.2,0.1,0.3c0,0.2-0.1,0.4-0.3,0.5C5.4,9,5.2,9.1,5,9.1C4.7,9.1,4.5,9,4.3,8.8
	C4.1,8.6,4,8.4,4,8.1c-0.1-0.3-0.2-0.7-0.2-1c0-1.2,0.7-2.3,1.9-2.7c1.7-0.6,3.6-0.9,5.4-0.9c1.5,0,2.9,0.1,4.4,0.3
	C15.7,3.9,15.8,3.9,16,4z"/>
<path class="st3" d="M14.5,4.6c0.1,0.1,0.1,0.3,0.1,0.5c0,0.6-0.3,0.9-1,0.9h-0.5c-0.5,0-1.1-0.1-1.6-0.1s-1.1,0-1.6,0H9.4
	C9.3,7.1,9.2,8.4,9.1,9.5h2.3c0.2,0,0.5,0,0.7,0.2c0.1,0.1,0.2,0.3,0.2,0.5c0,0.3-0.1,0.5-0.3,0.8c-0.2,0.2-0.5,0.3-0.8,0.3H8.8
	l-0.1,0.6C8.7,13,8.3,14.1,7.5,15c-0.7,0.7-1.6,1-2.5,1c-0.6,0-1.2-0.1-1.7-0.4c-0.5-0.2-0.8-0.6-1.1-1c-0.1-0.2-0.1-0.4-0.1-0.6
	c0-0.2,0-0.4,0.1-0.6c0.1-0.1,0.2-0.2,0.4-0.3c0.1,0,0.2,0,0.3,0.1c0.1,0.1,0.3,0.3,0.4,0.4c0.4,0.5,1,0.9,1.6,0.9
	c0.5,0,1-0.2,1.3-0.7c0.4-0.6,0.6-1.3,0.7-2l0.1-0.8H6.3c-0.2,0-0.4-0.1-0.5-0.2c-0.1-0.1-0.2-0.3-0.2-0.5c0-0.2,0.1-0.5,0.2-0.7
	c0.2-0.2,0.4-0.2,0.6-0.2h0.7c0.1-1,0.2-2.3,0.3-3.7c-0.7,0-1.4,0.2-2,0.5C5.1,6.6,4.9,7,4.9,7.4c0,0.3,0.1,0.6,0.3,0.9
	c0.1,0.1,0.1,0.2,0.1,0.3C5.2,8.8,5.1,8.9,5,9C4.8,9.2,4.6,9.2,4.4,9.2C4.1,9.2,3.9,9.1,3.7,9C3.6,8.8,3.5,8.6,3.4,8.4
	c-0.1-0.3-0.2-0.7-0.1-1C3.2,6.3,3.9,5.2,5,4.9C6.6,4.3,8.3,4,10,4.1c1.3,0,2.7,0.1,4,0.3C14.2,4.4,14.4,4.4,14.5,4.6z"/>
</svg>
